<svg xmlns="http://www.w3.org/2000/svg" width="358" height="320" viewBox="0 0 358 320">
  <g id="Group_2" data-name="Group 2" transform="translate(-24.5 -178)">
    <g id="Rectangle_3" data-name="Rectangle 3" transform="translate(42 178)" fill="#fff" stroke="#707070" stroke-width="1">
      <rect width="320" height="320" stroke="none"/>
      <rect x="0.5" y="0.5" width="319" height="319" fill="none"/>
    </g>
    <line id="Line_3" data-name="Line 3" y1="21" x2="21" transform="translate(338.5 180.5)" fill="none" stroke="#707070" stroke-width="1"/>
    <line id="Line_5" data-name="Line 5" y1="21" x2="21" transform="translate(359.5 474.5) rotate(90)" fill="none" stroke="#707070" stroke-width="1"/>
    <g id="Rectangle_6" data-name="Rectangle 6" transform="translate(66 202)" fill="#fff" stroke="#707070" stroke-width="1">
      <rect width="272" height="272" stroke="none"/>
      <rect x="0.5" y="0.5" width="271" height="271" fill="none"/>
    </g>
    <line id="Line_4" data-name="Line 4" y1="21" x2="21" transform="translate(65.5 180.5) rotate(90)" fill="none" stroke="#707070" stroke-width="1"/>
    <line id="Line_6" data-name="Line 6" y1="21" x2="21" transform="translate(44.5 474.5)" fill="none" stroke="#707070" stroke-width="1"/>
    <g id="Rectangle_7" data-name="Rectangle 7" transform="translate(38 212)" fill="#fff" stroke="#707070" stroke-width="1">
      <rect width="13" height="37" stroke="none"/>
      <rect x="0.5" y="0.5" width="12" height="36" fill="none"/>
    </g>
    <g id="Rectangle_8" data-name="Rectangle 8" transform="translate(38 427)" fill="#fff" stroke="#707070" stroke-width="1">
      <rect width="13" height="37" stroke="none"/>
      <rect x="0.5" y="0.5" width="12" height="36" fill="none"/>
    </g>
    <g id="Rectangle_14" data-name="Rectangle 14" transform="translate(343 314)" fill="#fff" stroke="#707070" stroke-width="1">
      <rect width="13" height="49" rx="3" stroke="none"/>
      <rect x="0.5" y="0.5" width="12" height="48" rx="2.5" fill="none"/>
    </g>
    <line id="Line_7" data-name="Line 7" x2="58" transform="translate(24.5 219.5)" fill="none" stroke="#eb0c0c" stroke-width="1" stroke-dasharray="10 5"/>
    <line id="Line_10" data-name="Line 10" x2="58" transform="translate(24.5 434.5)" fill="none" stroke="#eb0c0c" stroke-width="1" stroke-dasharray="10 5"/>
    <line id="Line_11" data-name="Line 11" x2="58" transform="translate(324.5 327.5)" fill="none" stroke="#eb0c0c" stroke-width="1" stroke-dasharray="10 5"/>
    <line id="Line_13" data-name="Line 13" y2="20" transform="translate(324.5 327.5)" fill="none" stroke="#eb0c0c" stroke-width="1" stroke-dasharray="10 5"/>
    <line id="Line_8" data-name="Line 8" x2="58" transform="translate(24.5 239.5)" fill="none" stroke="#eb0c0c" stroke-width="1" stroke-dasharray="10 5"/>
    <line id="Line_9" data-name="Line 9" x2="58" transform="translate(24.5 454.5)" fill="none" stroke="#eb0c0c" stroke-width="1" stroke-dasharray="10 5"/>
    <line id="Line_12" data-name="Line 12" x2="58" transform="translate(324.5 347.5)" fill="none" stroke="#eb0c0c" stroke-width="1" stroke-dasharray="10 5"/>
    <g id="Ellipse_1" data-name="Ellipse 1" transform="translate(346 324)" fill="#fff" stroke="#eb0c0c" stroke-width="1">
      <circle cx="3.5" cy="3.5" r="3.5" stroke="none"/>
      <circle cx="3.5" cy="3.5" r="3" fill="none"/>
    </g>
    <g id="Ellipse_2" data-name="Ellipse 2" transform="translate(346 344)" fill="#fff" stroke="#eb0c0c" stroke-width="1">
      <circle cx="3.5" cy="3.5" r="3.5" stroke="none"/>
      <circle cx="3.5" cy="3.5" r="3" fill="none"/>
    </g>
  </g>
</svg>
